# Blender3D v249 OBJ File: 
# www.blender3d.org
mtllib models/cube.mtl
o Cube
v -0.322348 0.585955 -1.597732
v 0.233523 -1.280565 -1.142638
v -1.079832 -1.303976 0.365524
v -1.635702 0.562544 -0.089571
v 1.079833 1.303976 -0.365524
v 1.635702 -0.562544 0.089571
v 0.322347 -0.585955 1.597732
v -0.233522 1.280565 1.142638
vn -0.277935 0.933260 -0.227547
vn -0.656677 -0.011706 0.754081
vn 0.277935 -0.933260 0.227547
vn 0.277935 -0.933260 0.227548
vn 0.656677 0.011706 -0.754081
vn 0.656678 0.011706 -0.754080
vn 0.701090 0.359011 0.616104
vn -0.701090 -0.359011 -0.616104
usemtl Material
s 1
f 5//1 1//1 4//1
f 5//1 4//1 8//1
f 3//2 7//2 8//2
f 3//2 8//2 4//2
f 2//3 6//3 3//3
f 6//4 7//4 3//4
f 1//5 5//5 2//5
f 5//6 6//6 2//6
f 5//7 8//7 6//7
f 8//7 7//7 6//7
f 1//8 2//8 3//8
f 1//8 3//8 4//8
